<svg width="17" height="16" viewBox="0 0 17 16" fill="none" xmlns="http://www.w3.org/2000/svg">
<g clip-path="url(#clip0_3551_4017)">
<path d="M16.129 0.0332031L9.51172 5.01378L10.7407 2.07536L16.129 0.0332031Z" fill="#E17726"/>
<path d="M9.51328 5.04717C9.50608 5.04717 9.49888 5.04451 9.49299 5.03987C9.48121 5.03057 9.47729 5.01464 9.48317 5.0007L10.7121 2.06227C10.7154 2.05364 10.7226 2.047 10.7311 2.04435L16.1194 0.00218891C16.1345 -0.00378619 16.1522 0.00285281 16.1594 0.0174586C16.1672 0.0320644 16.1633 0.0499897 16.1502 0.0599482L9.53291 5.04053C9.52702 5.04518 9.51982 5.04717 9.51328 5.04717ZM10.7671 2.10144L9.5905 4.91439L15.9251 0.146255L10.7671 2.10144Z" fill="#E17726"/>
<path d="M0.867188 0.0332031L7.42427 5.06092L6.25552 2.07536L0.867188 0.0332031Z" fill="#E27625"/>
<path d="M7.42585 5.09403C7.41865 5.09403 7.4121 5.09203 7.40621 5.08739L0.849128 0.05967C0.83604 0.0497115 0.832114 0.0317862 0.839967 0.0171804C0.847819 0.00257456 0.864834 -0.00340055 0.879885 0.00191066L6.26821 2.04407C6.27672 2.04739 6.28392 2.05403 6.28719 2.06266L7.45595 5.04822C7.46118 5.06216 7.45726 5.07809 7.44548 5.08672C7.43959 5.09203 7.43304 5.09403 7.42585 5.09403ZM1.0677 0.143985L7.35255 4.96324L6.23222 2.10183L1.0677 0.143985Z" fill="#E27625"/>
<path d="M13.7525 11.5781L11.9922 14.3147L15.7589 15.3657L16.8354 11.6385L13.7525 11.5781Z" fill="#E27625"/>
<path d="M15.7597 15.3996C15.7571 15.3996 15.7538 15.3989 15.7512 15.3982L11.9845 14.3473C11.9747 14.3446 11.9662 14.3367 11.9629 14.3267C11.9596 14.3168 11.9603 14.3055 11.9662 14.2968L13.7265 11.5602C13.7324 11.5509 13.7429 11.5443 13.7546 11.545L16.8375 11.6054C16.848 11.6054 16.8572 11.6107 16.863 11.6187C16.8689 11.6273 16.8709 11.6379 16.8683 11.6479L15.7918 15.375C15.7872 15.3903 15.7741 15.3996 15.7597 15.3996ZM12.0447 14.2955L15.7368 15.3259L16.7924 11.6718L13.7703 11.6127L12.0447 14.2955Z" fill="#E27625"/>
<path d="M0.171875 11.6385L1.24182 15.3657L5.00854 14.3147L3.25475 11.5781L0.171875 11.6385Z" fill="#E27625"/>
<path d="M1.24324 15.3989C1.22885 15.3989 1.21576 15.3896 1.21183 15.375L0.141889 11.6478C0.139271 11.6379 0.14058 11.6272 0.147124 11.6186C0.153014 11.61 0.16283 11.6053 0.172646 11.6053L3.25552 11.5449C3.26796 11.5449 3.27712 11.5502 3.28366 11.5602L5.03745 14.2968C5.04334 14.3054 5.044 14.3167 5.04073 14.3267C5.0368 14.3366 5.02895 14.3439 5.01913 14.3466L1.25241 15.3975C1.24913 15.3982 1.24586 15.3989 1.24324 15.3989ZM0.216491 11.6711L1.26549 15.3252L4.95827 14.2948L3.23851 11.612L0.216491 11.6711Z" fill="#E27625"/>
<path d="M4.79966 6.95467L3.75 8.56596L7.48401 8.73459L7.35771 4.65625L4.79966 6.95467Z" fill="#E27625"/>
<path d="M7.48504 8.76739C7.48439 8.76739 7.48438 8.76739 7.48373 8.76739L3.74973 8.59876C3.73795 8.59809 3.72748 8.59145 3.72224 8.58083C3.717 8.57021 3.71766 8.55759 3.7242 8.54764L4.77386 6.93635C4.77517 6.93369 4.77713 6.9317 4.77975 6.92971L7.3378 4.63129C7.34762 4.62266 7.3607 4.62067 7.37248 4.62598C7.38426 4.63129 7.39211 4.64257 7.39211 4.65519L7.51841 8.73353C7.51841 8.74282 7.51514 8.75145 7.5086 8.75809C7.50205 8.76407 7.49355 8.76739 7.48504 8.76739ZM3.80993 8.53502L7.45101 8.69967L7.32798 4.72755L4.82556 6.97618L3.80993 8.53502Z" fill="#E27625"/>
<path d="M12.1961 6.95494L9.5981 4.60938L9.51172 8.73485L13.2457 8.56622L12.1961 6.95494Z" fill="#E27625"/>
<path d="M9.51319 8.76815C9.50468 8.76815 9.49617 8.76483 9.49029 8.75885C9.48374 8.75221 9.48047 8.74358 9.48047 8.73429L9.56685 4.60881C9.56685 4.5962 9.5747 4.58425 9.58648 4.57894C9.59826 4.57362 9.612 4.57628 9.62117 4.58425L12.2191 6.92981C12.2211 6.9318 12.2231 6.93379 12.2244 6.93645L13.274 8.54773C13.2806 8.55769 13.2812 8.5703 13.276 8.58093C13.2708 8.59155 13.2603 8.59819 13.2485 8.59885L9.5145 8.76748C9.51384 8.76815 9.51384 8.76815 9.51319 8.76815ZM9.63098 4.68184L9.54656 8.69976L13.1883 8.53512L12.1727 6.97628L9.63098 4.68184Z" fill="#E27625"/>
<path d="M5.00781 14.315L7.26026 13.2023L5.31996 11.666L5.00781 14.315Z" fill="#E27625"/>
<path d="M5.00948 14.348C5.00294 14.348 4.99639 14.346 4.9905 14.342C4.98069 14.3347 4.97545 14.3228 4.97676 14.3108L5.28891 11.6619C5.29022 11.6499 5.29807 11.64 5.30854 11.6353C5.31967 11.6307 5.3321 11.6327 5.34126 11.64L7.28156 13.1762C7.29072 13.1835 7.2953 13.1948 7.29399 13.2061C7.29268 13.2174 7.28614 13.2273 7.27567 13.2327L5.02322 14.3454C5.0193 14.3467 5.01406 14.348 5.00948 14.348ZM5.34715 11.7283L5.04874 14.2584L7.20041 13.1955L5.34715 11.7283Z" fill="#E27625"/>
<path d="M9.73828 13.2023L11.9907 14.315L11.6786 11.666L9.73828 13.2023Z" fill="#E27625"/>
<path d="M11.9924 14.3487C11.9878 14.3487 11.9826 14.3473 11.978 14.3454L9.72557 13.2327C9.7151 13.2273 9.70856 13.2174 9.70725 13.2061C9.70594 13.1948 9.71052 13.1835 9.71968 13.1762L11.66 11.64C11.6691 11.6327 11.6816 11.6307 11.6927 11.6353C11.7038 11.64 11.711 11.6499 11.7123 11.6619L12.0245 14.3108C12.0258 14.3228 12.0206 14.3347 12.0107 14.342C12.0055 14.3467 11.999 14.3487 11.9924 14.3487ZM9.80148 13.1961L11.9532 14.259L11.6547 11.7289L9.80148 13.1961Z" fill="#E27625"/>
<path d="M11.9907 14.3158L9.73828 13.2031L9.91759 14.6929L9.89795 15.3196L11.9907 14.3158Z" fill="#D5BFB2"/>
<path d="M9.89962 15.3523C9.89308 15.3523 9.88719 15.3503 9.88195 15.347C9.87214 15.3404 9.8669 15.3298 9.8669 15.3185L9.88653 14.6917L9.70723 13.2073C9.70592 13.1953 9.71116 13.1834 9.72097 13.1761C9.73079 13.1688 9.74322 13.1681 9.75435 13.1734L12.0068 14.2861C12.0179 14.2914 12.0251 14.3034 12.0251 14.316C12.0251 14.3286 12.0179 14.3405 12.0061 14.3459L9.91337 15.3497C9.90944 15.351 9.9042 15.3523 9.89962 15.3523ZM9.77987 13.259L9.95197 14.6884L9.93431 15.266L11.9171 14.3147L9.77987 13.259Z" fill="#D5BFB2"/>
<path d="M5.00781 14.3158L7.10058 15.3196L7.0875 14.6929L7.26026 13.2031L5.00781 14.3158Z" fill="#D5BFB2"/>
<path d="M7.10205 15.3528C7.09747 15.3528 7.09224 15.3515 7.08831 15.3495L4.99554 14.3456C4.98442 14.3403 4.97656 14.3284 4.97656 14.3158C4.97656 14.3032 4.98376 14.2912 4.99489 14.2859L7.24733 13.1732C7.2578 13.1679 7.27089 13.1692 7.2807 13.1759C7.29052 13.1832 7.29576 13.1944 7.29445 13.2071L7.12169 14.6969L7.13477 15.3189C7.13477 15.3302 7.12954 15.3415 7.11972 15.3475C7.11449 15.3508 7.1086 15.3528 7.10205 15.3528ZM5.08519 14.3151L7.06802 15.2665L7.05625 14.6935L7.22246 13.2595L5.08519 14.3151Z" fill="#D5BFB2"/>
<path d="M7.13917 10.6822L5.26562 10.1232L6.58751 9.50977L7.13917 10.6822Z" fill="#233447"/>
<path d="M7.14078 10.715C7.13751 10.715 7.13489 10.7144 7.13162 10.7137L5.25808 10.1547C5.24499 10.1507 5.23583 10.1388 5.23452 10.1255C5.23321 10.1115 5.24106 10.0989 5.25349 10.093L6.57538 9.47951C6.59174 9.4722 6.61072 9.47884 6.61857 9.49544L7.17023 10.6679C7.17547 10.6798 7.17416 10.6938 7.16565 10.7037C7.15911 10.711 7.14995 10.715 7.14078 10.715ZM5.36082 10.1162L7.07992 10.6294L6.57342 9.5532L5.36082 10.1162Z" fill="#233447"/>
<path d="M9.85547 10.6822L10.4071 9.50977L11.7356 10.1232L9.85547 10.6822Z" fill="#233447"/>
<path d="M9.85705 10.7157C9.84789 10.7157 9.83873 10.7117 9.83219 10.7037C9.82368 10.6938 9.82171 10.6798 9.8276 10.6679L10.3793 9.49544C10.3871 9.47884 10.4061 9.4722 10.4225 9.47951L11.7509 10.093C11.7633 10.0989 11.7712 10.1115 11.7699 10.1255C11.7692 10.1394 11.7594 10.1514 11.7463 10.1547L9.86621 10.7137C9.86294 10.715 9.86032 10.7157 9.85705 10.7157ZM10.4244 9.55386L9.91791 10.63L11.6436 10.1169L10.4244 9.55386Z" fill="#233447"/>
<path d="M5.0077 14.3147L5.33293 11.5781L3.25391 11.6385L5.0077 14.3147Z" fill="#CC6228"/>
<path d="M5.00939 14.348C4.99826 14.348 4.98845 14.3427 4.9819 14.3334L3.22811 11.6572C3.22157 11.6472 3.22091 11.6339 3.22615 11.6233C3.23138 11.6127 3.24251 11.6061 3.25429 11.6054L5.33331 11.545C5.34117 11.5443 5.35229 11.549 5.35818 11.5556C5.36473 11.5629 5.36734 11.5722 5.36669 11.5822L5.04145 14.3188C5.03949 14.3327 5.02967 14.344 5.01658 14.3473C5.01462 14.348 5.012 14.348 5.00939 14.348ZM3.3158 11.6698L4.98779 14.2212L5.29798 11.612L3.3158 11.6698Z" fill="#CC6228"/>
<path d="M11.6641 11.5781L11.9893 14.3147L13.7496 11.6385L11.6641 11.5781Z" fill="#CC6228"/>
<path d="M11.9911 14.3479C11.9884 14.3479 11.9858 14.3479 11.9832 14.3472C11.9701 14.3439 11.9596 14.3326 11.9583 14.3187L11.6331 11.5821C11.6318 11.5728 11.6351 11.5628 11.6416 11.5555C11.6481 11.5482 11.6573 11.5456 11.6665 11.5449L13.752 11.6053C13.7638 11.606 13.7749 11.6126 13.7802 11.6233C13.7854 11.6339 13.7848 11.6472 13.7782 11.6571L12.0179 14.3333C12.012 14.3426 12.0022 14.3479 11.9911 14.3479ZM11.7031 11.6126L12.0133 14.2218L13.6918 11.6704L11.7031 11.6126Z" fill="#CC6228"/>
<path d="M13.2496 8.56641L9.51562 8.73504L9.86115 10.6823L10.4128 9.50981L11.7412 10.1233L13.2496 8.56641Z" fill="#CC6228"/>
<path d="M9.85936 10.7155C9.85805 10.7155 9.85674 10.7155 9.85478 10.7155C9.84103 10.7135 9.82925 10.7029 9.82664 10.6883L9.48111 8.74104C9.47915 8.73175 9.48177 8.72179 9.48766 8.71449C9.49355 8.70718 9.50205 8.70254 9.51187 8.70187L13.2459 8.53324C13.2616 8.53258 13.2721 8.54054 13.2773 8.55316C13.2825 8.56577 13.2799 8.58038 13.2707 8.58967L11.7624 10.1465C11.7525 10.1565 11.7381 10.1591 11.7257 10.1532L10.4267 9.55299L9.88881 10.6962C9.88357 10.7082 9.87179 10.7155 9.85936 10.7155ZM9.55244 8.76627L9.8731 10.5747L10.3809 9.49523C10.3888 9.47864 10.4077 9.472 10.4241 9.4793L11.7316 10.0828L13.1654 8.60295L9.55244 8.76627Z" fill="#CC6228"/>
<path d="M5.26884 10.1233L6.59073 9.50981L7.14239 10.6823L7.48791 8.73504L3.75391 8.56641L5.26884 10.1233Z" fill="#CC6228"/>
<path d="M7.14325 10.7148C7.13082 10.7148 7.11904 10.7075 7.11381 10.6962L6.57589 9.55299L5.28345 10.1532C5.27102 10.1591 5.25597 10.1565 5.2468 10.1465L3.73187 8.58967C3.72271 8.57972 3.72009 8.56511 3.72532 8.55316C3.73056 8.54054 3.74168 8.53258 3.75674 8.53324L7.49074 8.70187C7.4999 8.70254 7.50906 8.70652 7.51495 8.71449C7.52084 8.72245 7.52346 8.73175 7.5215 8.74104L7.17597 10.6883C7.17336 10.7022 7.16223 10.7135 7.14784 10.7155C7.14587 10.7148 7.14456 10.7148 7.14325 10.7148ZM6.5916 9.47598C6.60403 9.47598 6.61581 9.48262 6.62104 9.49457L7.12886 10.5741L7.44951 8.76561L3.83657 8.60229L5.27691 10.0821L6.57785 9.47864C6.58243 9.47731 6.58701 9.47598 6.5916 9.47598Z" fill="#CC6228"/>
<path d="M3.75 8.56641L5.31794 11.6668L5.26494 10.1233L3.75 8.56641Z" fill="#E27525"/>
<path d="M5.31905 11.6995C5.30727 11.6995 5.29549 11.6929 5.29026 11.6816L3.72231 8.58118C3.71511 8.56658 3.71904 8.54865 3.73213 8.53936C3.74522 8.53007 3.76354 8.53139 3.77466 8.54268L5.2896 10.0995C5.29549 10.1055 5.29876 10.1135 5.29876 10.1214L5.35177 11.665C5.35242 11.6803 5.34195 11.6942 5.32756 11.6982C5.32428 11.6989 5.32167 11.6995 5.31905 11.6995ZM3.87741 8.74318L5.28109 11.5189L5.23332 10.1367L3.87741 8.74318Z" fill="#E27525"/>
<path d="M11.7353 10.1233L11.6758 11.6668L13.2437 8.56641L11.7353 10.1233Z" fill="#E27525"/>
<path d="M11.6773 11.7C11.6747 11.7 11.672 11.6994 11.6688 11.6987C11.6537 11.6947 11.6439 11.6808 11.6446 11.6655L11.7041 10.1219C11.7041 10.114 11.708 10.106 11.7133 10.1L13.2217 8.54317C13.2328 8.53122 13.2511 8.52989 13.2642 8.53985C13.2773 8.54915 13.2812 8.56707 13.274 8.58168L11.7061 11.6821C11.7008 11.6934 11.6891 11.7 11.6773 11.7ZM11.7689 10.1372L11.7159 11.5181L13.1183 8.745L11.7689 10.1372Z" fill="#E27525"/>
<path d="M7.48615 8.73438L7.14062 10.6816L7.57907 12.98L7.672 9.95396L7.48615 8.73438Z" fill="#E27525"/>
<path d="M7.58038 13.0132C7.56467 13.0132 7.55159 13.0019 7.54831 12.986L7.10987 10.6876C7.10921 10.6836 7.10921 10.6796 7.10987 10.6756L7.45539 8.72839C7.45801 8.71246 7.47175 8.70117 7.48745 8.70117C7.48745 8.70117 7.48745 8.70117 7.48811 8.70117C7.50381 8.70117 7.51756 8.71312 7.52017 8.72906L7.70602 9.94864L7.61375 12.9807C7.6131 12.9973 7.60001 13.0112 7.58365 13.0125C7.58234 13.0132 7.58103 13.0132 7.58038 13.0132ZM7.17531 10.6816L7.55682 12.6819L7.64058 9.95329L7.48484 8.93553L7.17531 10.6816Z" fill="#E27525"/>
<path d="M9.51134 8.73438L9.33203 9.94732L9.41841 12.98L9.85686 10.6816L9.51134 8.73438Z" fill="#E27525"/>
<path d="M9.41988 13.0132C9.41923 13.0132 9.41792 13.0132 9.41726 13.0132C9.4009 13.0119 9.38782 12.998 9.38716 12.9814L9.30078 9.94867L9.48074 8.72975C9.48336 8.71381 9.49645 8.70186 9.51281 8.7012C9.52982 8.70053 9.54291 8.71248 9.54553 8.72842L9.89105 10.6756C9.8917 10.6796 9.8917 10.6836 9.89105 10.6876L9.4526 12.986C9.44933 13.0019 9.43559 13.0132 9.41988 13.0132ZM9.51542 8.93821L9.36557 9.95199L9.44344 12.6786L9.8243 10.6809L9.51542 8.93821Z" fill="#E27525"/>
<path d="M9.85642 10.6821L9.41797 12.9805L9.73666 13.2029L11.677 11.6666L11.7365 10.123L9.85642 10.6821Z" fill="#F5841F"/>
<path d="M9.7381 13.2359C9.73155 13.2359 9.72501 13.2339 9.71977 13.2299L9.40108 13.0075C9.39061 13.0002 9.38472 12.9869 9.38734 12.9736L9.82579 10.6752C9.8284 10.6633 9.83691 10.6533 9.84869 10.65L11.7288 10.091C11.7386 10.0883 11.7497 10.0903 11.7582 10.097C11.7667 10.1036 11.7713 10.1136 11.7707 10.1242L11.7111 11.6677C11.7105 11.6777 11.7059 11.6863 11.6987 11.6923L9.75838 13.2286C9.75249 13.2339 9.74529 13.2359 9.7381 13.2359ZM9.4554 12.965L9.73679 13.1615L11.6463 11.6498L11.7033 10.168L9.88599 10.7084L9.4554 12.965Z" fill="#F5841F"/>
<path d="M5.26562 10.123L5.31863 11.6666L7.25893 13.2029L7.57762 12.9805L7.13917 10.6821L5.26562 10.123Z" fill="#F5841F"/>
<path d="M7.26045 13.2357C7.25325 13.2357 7.24606 13.233 7.24017 13.2283L5.29987 11.6921C5.29202 11.6861 5.28744 11.6768 5.28744 11.6669L5.23443 10.124C5.23378 10.1133 5.23901 10.1034 5.24686 10.0967C5.25537 10.0901 5.26584 10.0881 5.27631 10.0914L7.14986 10.6504C7.16164 10.6537 7.17015 10.6637 7.17276 10.6757L7.61121 12.9741C7.61383 12.9874 7.60859 13 7.59747 13.0079L7.27878 13.2303C7.27354 13.2337 7.267 13.2357 7.26045 13.2357ZM5.35222 11.6496L7.26176 13.1613L7.54315 12.9648L7.11256 10.7075L5.30183 10.1671L5.35222 11.6496Z" fill="#F5841F"/>
<path d="M9.89749 15.3202L9.91712 14.6935L9.75156 14.5455H7.24651L7.0875 14.6935L7.10058 15.3202L5.00781 14.3164L5.73878 14.9225L7.22688 15.9675H9.77119L11.2593 14.9225L11.9903 14.3164L9.89749 15.3202Z" fill="#C0AC9D"/>
<path d="M9.77234 16.0007H7.22803C7.22149 16.0007 7.21495 15.9987 7.20971 15.9947L5.72161 14.9497L4.98868 14.3422C4.97559 14.3316 4.97297 14.313 4.98148 14.2991C4.98999 14.2851 5.00831 14.2798 5.02336 14.2865L7.06771 15.267L7.05593 14.6941C7.05593 14.6848 7.05985 14.6755 7.0664 14.6689L7.22542 14.5208C7.23131 14.5155 7.23916 14.5122 7.24767 14.5122H9.75271C9.76056 14.5122 9.76841 14.5148 9.7743 14.5208L9.93987 14.6689C9.94707 14.6755 9.95099 14.6848 9.95099 14.6948L9.93267 15.267L11.977 14.2865C11.9921 14.2792 12.0097 14.2845 12.0189 14.2991C12.0274 14.313 12.0248 14.3316 12.0117 14.3422L11.2807 14.9484L9.79066 15.9947C9.78543 15.9987 9.77888 16.0007 9.77234 16.0007ZM7.2385 15.9343H9.76252L11.2421 14.8953L11.7643 14.4624L9.91304 15.3507C9.90257 15.3553 9.89079 15.3547 9.88097 15.3487C9.87116 15.3421 9.86592 15.3314 9.86592 15.3202L9.8849 14.7094L9.74027 14.5799H7.2601L7.12137 14.7094L7.1338 15.3208C7.1338 15.3321 7.12856 15.3434 7.11875 15.3494C7.10893 15.3553 7.09715 15.3567 7.08668 15.3514L5.23539 14.4637L5.75956 14.8979L7.2385 15.9343Z" fill="#C0AC9D"/>
<path d="M9.73626 13.2029L9.41756 12.9805H7.57739L7.2587 13.2029L7.08594 14.6927L7.24496 14.5446H9.75L9.91556 14.6927L9.73626 13.2029Z" fill="#161616"/>
<path d="M7.08757 14.7252C7.08234 14.7252 7.0771 14.7239 7.07252 14.7219C7.06009 14.7152 7.05354 14.702 7.05485 14.6887L7.22761 13.1989C7.22892 13.1896 7.2335 13.181 7.24136 13.1756L7.56005 12.9532C7.56528 12.9493 7.57183 12.9473 7.57837 12.9473H9.41854C9.42509 12.9473 9.43163 12.9493 9.43687 12.9532L9.75556 13.1756C9.76341 13.181 9.76865 13.1896 9.7693 13.1989L9.94861 14.6887C9.95057 14.7026 9.94337 14.7159 9.93159 14.7219C9.91981 14.7285 9.90476 14.7265 9.89495 14.7172L9.73855 14.5771H7.25837L7.10851 14.7166C7.10328 14.7225 7.09543 14.7252 7.08757 14.7252ZM7.24659 14.5108H9.75163C9.75949 14.5108 9.76734 14.5134 9.77323 14.5194L9.87401 14.6097L9.70714 13.2215L9.40873 13.0137H7.58884L7.29109 13.2215L7.13011 14.6077L7.22434 14.52C7.23023 14.5141 7.23808 14.5108 7.24659 14.5108Z" fill="#161616"/>
<path d="M16.4086 5.33777L16.9668 2.58789L16.1298 0.0332031L9.73828 4.84582L12.1969 6.95503L15.6711 7.98673L16.4354 7.07652L16.103 6.8342L16.6343 6.34159L16.2293 6.01827L16.7606 5.60731L16.4086 5.33777Z" fill="#763E1A"/>
<path d="M15.6725 8.01987C15.6693 8.01987 15.6666 8.01921 15.6634 8.01854L12.1892 6.98684C12.1846 6.98551 12.1807 6.98352 12.1774 6.9802L9.71881 4.87099C9.71096 4.86435 9.70703 4.85439 9.70703 4.84444C9.70703 4.83448 9.71227 4.82518 9.72012 4.81854L16.1116 0.00659352C16.1201 -4.54835e-05 16.1313 -0.00137328 16.1411 0.00128232C16.1509 0.00460182 16.1588 0.0125686 16.162 0.0225271L16.999 2.57722C17.001 2.58253 17.001 2.5885 16.9997 2.59448L16.4454 5.32377L16.7811 5.5807C16.7896 5.58668 16.7942 5.59664 16.7942 5.60726C16.7942 5.61788 16.7896 5.62717 16.7811 5.63381L16.2831 6.01888L16.6548 6.31564C16.6626 6.32161 16.6666 6.33091 16.6672 6.3402C16.6672 6.35016 16.664 6.35946 16.6568 6.3661L16.1548 6.83083L16.4545 7.04925C16.4617 7.05456 16.467 7.06319 16.4676 7.07249C16.4689 7.08178 16.4663 7.09108 16.4598 7.09771L15.6954 8.00792C15.6909 8.01589 15.6817 8.01987 15.6725 8.01987ZM12.214 6.9251L15.6614 7.94883L16.3891 7.08244L16.0855 6.86137C16.0776 6.85539 16.0724 6.8461 16.0717 6.83614C16.0711 6.82618 16.075 6.81622 16.0822 6.80958L16.5848 6.34352L16.2098 6.04477C16.2019 6.03813 16.1974 6.02883 16.1974 6.01821C16.1974 6.00825 16.2019 5.9983 16.2105 5.99232L16.7078 5.60792L16.3904 5.36493C16.3806 5.35697 16.3754 5.34435 16.378 5.33174L16.9342 2.59049L16.1143 0.0875894L9.7921 4.84776L12.214 6.9251Z" fill="#763E1A"/>
<path d="M0.03125 2.58789L0.595997 5.33777L0.237386 5.60731L0.768759 6.01827L0.363685 6.34159L0.895058 6.8342L0.562623 7.07652L1.32696 7.98673L4.80117 6.95503L7.25975 4.84582L0.868227 0.0332031L0.03125 2.58789Z" fill="#763E1A"/>
<path d="M1.32846 8.01987C1.3193 8.01987 1.31014 8.01589 1.30359 8.00792L0.539252 7.09771C0.533362 7.09041 0.530745 7.08112 0.531399 7.07249C0.532708 7.06319 0.537289 7.05522 0.545142 7.04925L0.844857 6.83083L0.342932 6.3661C0.335734 6.35946 0.331807 6.35016 0.332462 6.3402C0.333116 6.33025 0.337042 6.32161 0.344895 6.31564L0.716594 6.01888L0.218596 5.63381C0.210089 5.62717 0.205508 5.61788 0.205508 5.60726C0.205508 5.59664 0.210743 5.58734 0.218596 5.5807L0.560193 5.32377L0.000680915 2.59448C-0.000627885 2.58917 2.65152e-05 2.58319 0.00198971 2.57722L0.838967 0.0225271C0.842239 0.0125686 0.850092 0.00460182 0.859908 0.00128232C0.869724 -0.00137328 0.880849 -4.54835e-05 0.889356 0.00659352L7.28088 4.81921C7.28873 4.82518 7.29397 4.83448 7.29397 4.8451C7.29397 4.85506 7.29004 4.86502 7.28219 4.87166L4.82361 6.98087C4.82034 6.98352 4.81575 6.98618 4.81183 6.98751L1.33762 8.01921C1.33435 8.01921 1.33173 8.01987 1.32846 8.01987ZM0.61189 7.08244L1.33958 7.94883L4.78696 6.9251L7.2089 4.84776L0.886738 0.0869255L0.0667753 2.58983L0.629559 5.33108C0.632177 5.34369 0.627596 5.35697 0.617126 5.36427L0.293198 5.60726L0.789887 5.99166C0.79774 5.99763 0.802975 6.00759 0.802975 6.01755C0.802975 6.02751 0.798394 6.03747 0.790542 6.0441L0.41557 6.34286L0.918804 6.80892C0.926002 6.81556 0.929929 6.82551 0.929274 6.83547C0.92862 6.84543 0.924039 6.85473 0.915532 6.8607L0.61189 7.08244Z" fill="#763E1A"/>
<path d="M15.6722 7.98678L12.198 6.95508L13.2476 8.56636L11.6797 11.6668L13.7522 11.6396H16.835L15.6722 7.98678Z" fill="#F5841F"/>
<path d="M11.6808 11.7C11.6697 11.7 11.6592 11.6941 11.6533 11.6841C11.6474 11.6742 11.6468 11.6615 11.652 11.6516L13.2114 8.56842L12.1722 6.97307C12.1644 6.96112 12.165 6.94652 12.1729 6.93523C12.1807 6.92394 12.1951 6.9193 12.2082 6.92328L15.6824 7.95498C15.6929 7.9583 15.7008 7.96627 15.704 7.97689L16.8669 11.6297C16.8702 11.6396 16.8682 11.6509 16.8623 11.6595C16.8564 11.6682 16.8466 11.6735 16.8361 11.6735H13.7533L11.6808 11.7ZM12.2756 7.01224L13.2762 8.54784C13.2828 8.5578 13.2834 8.57042 13.2782 8.58104L11.7351 11.6323L13.7533 11.6058H16.7916L15.6478 8.0134L12.2756 7.01224Z" fill="#F5841F"/>
<path d="M4.80241 6.95508L1.3282 7.98678L0.171875 11.6396H3.25475L5.32069 11.6668L3.75275 8.56636L4.80241 6.95508Z" fill="#F5841F"/>
<path d="M5.32178 11.7007L3.25518 11.6735H0.172958C0.162488 11.6735 0.152672 11.6682 0.146782 11.6595C0.140892 11.6509 0.138929 11.6396 0.142201 11.6297L1.29853 7.97689C1.3018 7.96627 1.3103 7.9583 1.32078 7.95498L4.79498 6.92328C4.80807 6.9193 4.82247 6.92394 4.83032 6.93523C4.83818 6.94652 4.83883 6.96179 4.83098 6.97307L3.79179 8.56843L5.35122 11.6516C5.35646 11.6622 5.35581 11.6742 5.34992 11.6841C5.34337 11.6947 5.3329 11.7007 5.32178 11.7007ZM0.218112 11.6071H3.25584L5.26812 11.6337L3.72504 8.58237C3.71981 8.57174 3.72046 8.55913 3.727 8.54917L4.72758 7.01357L1.35546 8.01473L0.218112 11.6071Z" fill="#F5841F"/>
<path d="M9.5128 8.73576L9.73857 4.84663L10.7418 2.07617H6.25781L7.26101 4.84663L7.48678 8.73576L7.57316 9.96198L7.5797 12.9814H9.41987L9.42642 9.96198L9.5128 8.73576Z" fill="#F5841F"/>
<path d="M9.42142 13.0146H7.58125C7.56293 13.0146 7.54853 13 7.54853 12.9814L7.54199 9.96197L7.4556 8.73774L7.22984 4.85326L6.22861 2.08745C6.22468 2.07749 6.22664 2.06621 6.23253 2.05691C6.23842 2.04828 6.24889 2.04297 6.25936 2.04297H10.7433C10.7538 2.04297 10.7643 2.04828 10.7701 2.05691C10.776 2.06554 10.778 2.07749 10.7741 2.08745L9.77284 4.85326L9.54707 8.73774C9.54707 8.73774 9.54707 8.73774 9.54707 8.7384L9.46069 9.96463L9.45414 12.9821C9.45414 13 9.43974 13.0146 9.42142 13.0146ZM7.61397 12.9482H9.3887L9.39525 9.96197L9.48163 8.73376L9.7074 4.84463C9.7074 4.84131 9.70805 4.83799 9.70936 4.83533L10.6962 2.10936H6.30648L7.29331 4.83533C7.29462 4.83865 7.29528 4.84131 7.29528 4.84463L7.52104 8.73376L7.60743 9.95932L7.61397 12.9482Z" fill="#F5841F"/>
</g>
<defs>
<clipPath id="clip0_3551_4017">
<rect width="17" height="16" fill="white"/>
</clipPath>
</defs>
</svg>
